<?xml version="1.0" standalone="no"?>
<!DOCTYPE svg PUBLIC "-//W3C//DTD SVG 20010904//EN"
 "http://www.w3.org/TR/2001/REC-SVG-20010904/DTD/svg10.dtd">
<svg version="1.0" xmlns="http://www.w3.org/2000/svg"
 width="534.000000pt" height="255.000000pt" viewBox="0 0 534.000000 255.000000"
 preserveAspectRatio="xMidYMid meet">
<metadata>
Created by potrace 1.10, written by Peter Selinger 2001-2011
</metadata>
<g transform="translate(0.000000,255.000000) scale(0.100000,-0.100000)"
fill="#000000" stroke="none">
<path d="M1693 2443 c-17 -6 -18 -231 -1 -268 l11 -25 152 0 c130 0 155 2 166
17 10 11 14 49 14 132 1 129 -6 154 -38 149 -21 -3 -22 -9 -27 -118 l-5 -115
-110 0 -110 0 -5 115 c-5 117 -10 129 -47 113z"/>
<path d="M2112 2427 c-17 -18 -22 -36 -22 -74 0 -77 12 -83 157 -83 125 0 153
-9 139 -45 -4 -12 -30 -15 -151 -15 l-145 0 0 -30 c0 -17 5 -30 13 -31 11 0
293 0 309 1 23 1 38 36 38 89 0 86 -8 91 -163 91 -69 0 -128 4 -131 9 -4 5 -3
16 0 25 5 13 30 16 147 18 l142 3 0 30 0 30 -156 3 c-151 2 -156 2 -177 -21z"/>
<path d="M2532 2434 c-21 -14 -22 -22 -22 -138 0 -96 3 -126 15 -136 10 -8 59
-12 162 -11 137 1 149 3 166 22 41 50 -1 104 -47 60 -21 -20 -33 -21 -127 -19
l-104 3 0 80 0 80 105 3 c104 3 105 3 127 -25 19 -23 26 -26 40 -17 27 17 28
62 2 90 -22 23 -28 24 -159 24 -106 0 -140 -3 -158 -16z"/>
<path d="M2940 2430 c-15 -15 -20 -33 -20 -71 0 -87 2 -89 143 -89 129 0 151
-6 145 -36 -3 -17 -16 -19 -143 -24 -126 -5 -140 -7 -143 -24 -2 -10 1 -23 6
-28 6 -6 74 -9 163 -9 177 2 179 3 179 87 0 86 -12 93 -160 96 -117 3 -125 4
-125 23 0 19 8 20 140 25 l140 5 0 30 0 30 -152 3 c-142 2 -154 1 -173 -18z"/>
<path d="M3350 2428 c-23 -25 -27 -91 -9 -132 12 -25 14 -25 143 -28 l131 -3
0 -25 0 -25 -140 -5 -140 -5 0 -25 0 -25 168 -3 c192 -3 182 -8 182 91 0 82
-9 87 -162 87 -104 0 -125 3 -130 16 -10 27 18 34 149 34 118 0 128 1 138 21
23 42 1 49 -161 49 -140 0 -149 -1 -169 -22z"/>
<path d="M51 2026 c-8 -9 -10 -129 -9 -422 l3 -409 78 -3 77 -3 0 230 c0 129
4 232 9 236 5 3 21 -18 35 -47 15 -29 47 -89 72 -133 24 -44 52 -93 60 -110 8
-16 21 -39 27 -50 7 -11 25 -44 41 -72 l29 -53 74 0 73 0 -2 423 -3 422 -63 3
c-38 2 -69 -2 -78 -9 -11 -9 -14 -55 -14 -236 0 -216 -1 -223 -19 -214 -10 6
-35 42 -55 81 -20 39 -49 92 -64 118 -16 26 -38 67 -51 92 -12 25 -31 59 -42
75 -10 17 -23 40 -28 52 -6 12 -19 27 -30 32 -28 16 -106 14 -120 -3z"/>
<path d="M773 1999 c-26 -22 -54 -48 -60 -57 -10 -12 -13 -94 -13 -333 l0
-317 57 -51 57 -51 175 0 176 0 58 53 57 52 0 318 0 318 -51 47 c-28 26 -58
50 -67 54 -10 4 -90 7 -179 7 l-162 1 -48 -41z m328 -99 c18 -10 19 -24 19
-283 0 -199 -3 -276 -12 -285 -8 -8 -50 -12 -124 -12 -93 0 -113 3 -118 16 -3
9 -6 136 -6 283 0 194 3 270 12 279 15 15 201 16 229 2z"/>
<path d="M1480 2033 c-8 -3 -36 -26 -62 -51 l-48 -46 0 -146 0 -146 54 -47 55
-47 131 0 c72 0 140 -5 151 -10 17 -9 19 -22 19 -99 0 -72 -3 -90 -16 -95 -9
-3 -101 -6 -205 -6 l-189 0 0 -43 c0 -36 6 -49 33 -75 l33 -32 199 0 200 0 53
50 52 50 0 148 0 149 -54 51 c-30 28 -64 54 -77 57 -13 3 -80 6 -149 8 l-125
2 0 90 0 90 200 5 200 5 3 36 c3 31 -2 41 -38 72 l-40 37 -183 -1 c-100 0
-189 -3 -197 -6z"/>
<path d="M1977 2033 c-13 -12 -8 -123 6 -124 6 0 54 0 105 1 60 1 98 -3 107
-10 13 -11 15 -69 15 -362 l0 -349 78 3 77 3 3 345 c1 220 6 348 13 355 5 5
60 12 122 15 l112 5 3 50 c3 38 -1 52 -14 62 -14 10 -90 13 -319 13 -166 0
-305 -3 -308 -7z"/>
<path d="M2661 2026 c-8 -9 -10 -129 -9 -422 l3 -409 73 -3 72 -3 0 150 c0 82
3 156 6 165 5 12 20 16 60 16 63 0 64 -1 119 -135 21 -49 49 -114 62 -143 l24
-53 82 3 c73 3 82 5 79 21 -3 19 -73 179 -109 249 -23 45 -16 64 42 113 l55
47 0 150 c0 84 -5 158 -10 169 -6 10 -34 37 -61 59 l-51 40 -213 0 c-167 0
-215 -3 -224 -14z m388 -130 c8 -9 11 -50 9 -117 l-3 -104 -125 0 -125 0 -3
97 c-4 139 -5 138 127 138 81 0 112 -4 120 -14z"/>
<path d="M3400 2033 c-8 -3 -36 -26 -62 -51 l-48 -46 0 -326 0 -326 54 -47 55
-47 178 0 178 0 53 51 52 50 0 323 0 323 -52 49 -53 49 -170 2 c-93 1 -177 -1
-185 -4z m294 -134 c8 -7 9 -557 1 -569 -4 -6 -55 -10 -120 -10 -103 0 -115 2
-125 19 -6 12 -10 120 -10 280 0 228 2 262 17 276 13 14 34 16 124 13 59 -1
110 -6 113 -9z"/>
<path d="M3957 2034 c-4 -4 -7 -196 -7 -426 l0 -418 75 0 75 0 2 207 c2 129 7
208 13 210 10 3 27 -25 62 -104 9 -21 22 -50 30 -65 7 -14 13 -31 13 -38 0 -7
9 -25 21 -41 15 -22 28 -29 54 -29 35 0 34 -2 91 130 9 19 22 48 30 63 8 16
14 35 14 42 0 15 27 45 41 45 5 0 10 -92 11 -207 l3 -208 70 0 70 0 3 414 c2
325 0 416 -10 423 -15 9 -99 11 -122 2 -15 -6 -31 -37 -80 -149 -7 -16 -23
-50 -34 -75 -24 -53 -60 -135 -73 -169 -9 -23 -10 -23 -29 -6 -11 10 -20 23
-20 28 0 5 -10 31 -21 56 -12 25 -28 60 -35 76 -112 258 -99 239 -176 243 -35
2 -67 0 -71 -4z"/>
<path d="M4777 1988 l-57 -54 0 -320 0 -320 53 -52 53 -52 178 0 179 0 59 58
58 59 0 309 0 310 -56 55 -57 54 -177 3 -177 3 -56 -53z m347 -94 c14 -13 16
-53 16 -278 0 -195 -3 -267 -13 -279 -11 -15 -28 -17 -127 -15 l-115 3 -3 280
c-1 154 0 285 3 292 7 21 219 18 239 -3z"/>
<path d="M0 1026 c0 -28 6 -48 17 -57 13 -12 231 -15 1307 -17 710 -2 1307 -3
1326 -2 19 1 619 3 1333 5 1047 3 1303 6 1327 17 27 11 30 18 30 55 l0 43
-1319 0 c-1160 0 -1320 -2 -1331 -15 -16 -19 -44 -19 -60 0 -11 13 -170 15
-1321 15 l-1309 0 0 -44z"/>
<path d="M253 892 l-253 -2 0 -43 c0 -58 18 -117 43 -146 21 -23 25 -23 127
-17 263 17 439 32 446 38 4 4 1 15 -7 24 -7 9 -23 44 -34 77 -17 48 -27 62
-46 66 -13 4 -138 5 -276 3z"/>
<path d="M652 884 c-12 -9 -11 -17 8 -61 12 -28 32 -61 46 -74 l24 -22 237 13
c131 7 279 15 328 17 50 3 95 9 102 15 8 6 10 27 6 61 -3 29 -7 53 -8 55 -1 1
-166 4 -365 5 -244 1 -368 -1 -378 -9z"/>
<path d="M1500 892 c-27 -9 -4 -123 44 -218 23 -46 115 -128 171 -154 47 -22
65 -23 322 -28 150 -2 288 -1 307 2 33 6 34 7 41 72 4 36 16 86 27 111 25 56
106 140 145 149 15 4 38 14 51 22 24 15 30 42 10 42 -112 3 -1111 4 -1118 2z"/>
<path d="M2691 886 c-9 -11 -9 -16 1 -23 30 -19 61 -33 73 -33 25 0 113 -90
138 -142 15 -31 28 -81 32 -120 l7 -68 304 0 c297 0 305 0 357 24 95 42 167
121 207 230 13 33 20 72 18 98 l-3 43 -561 3 c-475 2 -563 0 -573 -12z"/>
<path d="M3926 888 c-12 -39 -14 -108 -4 -114 11 -7 62 -11 471 -35 228 -13
218 -16 263 78 20 43 23 57 13 69 -16 19 -737 21 -743 2z"/>
<path d="M4775 892 c-6 -4 -16 -25 -23 -47 -6 -22 -20 -58 -31 -79 -11 -21
-18 -42 -16 -46 2 -4 82 -10 177 -14 95 -4 195 -12 222 -17 124 -23 186 -2
201 69 4 18 13 32 21 32 10 0 14 14 14 55 l0 55 -277 0 c-153 0 -283 -4 -288
-8z"/>
<path d="M2575 753 c-69 -37 -125 -136 -125 -222 0 -54 48 -159 87 -187 111
-82 250 -43 313 88 52 109 3 266 -100 318 -48 24 -133 26 -175 3z"/>
<path d="M1290 709 c-63 -4 -146 -12 -185 -18 -38 -6 -98 -10 -133 -11 -35 0
-94 -5 -133 -11 -85 -15 -88 -26 -19 -94 48 -48 53 -50 103 -49 29 1 86 8 127
17 41 9 118 23 170 32 125 21 233 46 244 55 11 11 -15 60 -39 74 -14 8 -55 10
-135 5z"/>
<path d="M3880 695 c-10 -11 -22 -32 -25 -47 -6 -25 -4 -28 16 -28 13 0 53 -6
89 -14 36 -8 94 -20 130 -27 36 -6 99 -18 140 -26 41 -8 108 -17 148 -20 l74
-5 49 48 c51 51 61 77 32 89 -10 4 -81 11 -158 16 -77 4 -169 13 -205 19 -36
5 -111 11 -168 13 -92 2 -104 1 -122 -18z"/>
<path d="M549 646 c-2 -3 -63 -10 -134 -15 -232 -20 -356 -34 -361 -43 -9 -14
34 -93 76 -140 l38 -43 90 2 c49 1 114 9 143 17 29 9 69 16 88 16 20 0 54 7
76 15 22 8 59 14 81 15 46 0 114 25 114 41 0 5 -12 22 -26 37 -14 15 -37 44
-50 65 -23 35 -27 37 -77 37 -30 0 -56 -2 -58 -4z"/>
<path d="M4636 614 c-16 -22 -42 -53 -58 -70 -17 -18 -26 -34 -21 -37 26 -16
103 -37 138 -37 22 -1 58 -7 80 -15 22 -8 57 -15 77 -15 21 0 57 -6 80 -14 24
-8 77 -17 118 -21 68 -6 78 -4 109 17 38 25 115 143 107 163 -2 7 -22 16 -43
19 -40 7 -342 34 -478 43 l-81 5 -28 -38z"/>
<path d="M1430 575 c-19 -7 -49 -14 -66 -14 -17 -1 -51 -8 -74 -16 -23 -8 -57
-15 -75 -15 -18 0 -49 -7 -68 -15 -20 -8 -51 -15 -69 -15 -41 0 -120 -30 -115
-43 2 -6 32 -25 68 -44 90 -45 152 -43 287 13 18 8 41 14 51 14 10 0 32 7 47
15 16 8 36 15 45 15 9 0 32 6 50 14 19 7 43 16 53 20 18 6 16 10 -19 46 -42
43 -59 46 -115 25z"/>
<path d="M3777 554 c-38 -35 -41 -54 -9 -54 9 0 30 -7 46 -15 15 -8 38 -15 50
-15 11 0 34 -7 50 -15 15 -8 37 -15 47 -15 10 0 33 -6 51 -14 63 -26 136 -46
166 -46 38 0 172 60 172 77 0 19 -54 43 -95 43 -20 0 -52 7 -72 15 -19 8 -51
15 -70 15 -18 0 -50 7 -70 15 -19 8 -50 15 -68 15 -18 0 -52 7 -75 15 -62 22
-81 19 -123 -21z"/>
<path d="M3645 464 c-22 -8 -58 -18 -79 -22 -39 -7 -63 -32 -31 -32 9 0 29 -6
43 -14 81 -44 183 -86 219 -92 42 -6 237 12 261 26 22 11 -26 36 -157 79 -67
22 -129 44 -138 49 -35 18 -79 20 -118 6z"/>
<path d="M1575 461 c-6 -4 -66 -26 -135 -49 -69 -22 -143 -48 -165 -58 -35
-15 -37 -18 -20 -24 11 -5 69 -16 128 -25 128 -19 159 -13 300 60 48 25 95 45
103 45 9 0 14 6 12 12 -3 7 -29 16 -59 21 -29 4 -58 12 -63 17 -12 12 -88 13
-101 1z"/>
<path d="M4459 431 c-14 -10 -53 -36 -88 -56 -34 -20 -60 -40 -56 -43 3 -3 25
-12 48 -18 23 -6 67 -19 97 -28 30 -9 73 -21 95 -27 22 -6 44 -14 49 -20 6 -5
21 -9 35 -9 15 -1 37 -7 51 -15 63 -36 179 -10 336 73 45 24 19 62 -42 62 -15
0 -53 6 -83 14 -31 8 -94 22 -141 31 -47 10 -110 23 -140 30 -115 27 -134 27
-161 6z"/>
<path d="M700 424 c-30 -8 -89 -21 -130 -30 -41 -8 -95 -20 -120 -26 -25 -6
-68 -14 -96 -17 -52 -7 -87 -26 -82 -43 3 -9 88 -62 113 -71 6 -2 26 -10 45
-17 56 -21 172 -24 209 -6 16 9 39 16 50 16 11 0 35 6 53 14 18 8 58 21 88 30
117 35 175 55 177 63 1 4 -17 17 -40 27 -23 11 -58 32 -78 48 -42 32 -94 35
-189 12z"/>
<path d="M1935 430 c-72 -6 -118 -21 -130 -39 -3 -6 -14 -11 -24 -11 -10 0
-24 -7 -31 -15 -7 -8 -19 -15 -27 -15 -8 0 -21 -7 -29 -15 -9 -8 -24 -15 -35
-15 -10 0 -19 -7 -19 -15 0 -12 19 -15 115 -15 l115 0 62 43 c104 71 127 90
122 99 -5 8 -9 8 -119 -2z"/>
<path d="M2195 433 c-65 -6 -80 -11 -116 -43 -19 -17 -51 -40 -71 -52 -63 -36
-50 -48 50 -48 l88 0 63 65 c57 58 70 88 38 83 -7 -1 -30 -3 -52 -5z"/>
<path d="M2340 433 c-24 -9 -120 -118 -120 -136 0 -4 56 -7 125 -7 100 0 125
3 125 14 0 7 -7 19 -16 27 -8 7 -24 30 -35 50 -16 32 -47 62 -61 58 -2 0 -10
-3 -18 -6z"/>
<path d="M2914 408 c-9 -18 -30 -49 -45 -69 -16 -20 -26 -39 -22 -43 12 -12
253 -7 253 5 0 7 -25 40 -56 75 -44 51 -62 64 -85 64 -22 0 -32 -7 -45 -32z"/>
<path d="M3050 430 c0 -5 28 -39 61 -75 l62 -65 88 0 c48 0 90 4 93 8 3 5 -36
39 -86 75 -89 66 -91 67 -154 67 -36 0 -64 -4 -64 -10z"/>
<path d="M3267 433 c-10 -9 -8 -23 2 -23 11 0 88 -49 142 -92 36 -27 41 -28
152 -28 64 0 118 4 121 9 3 5 -33 28 -82 51 -48 24 -88 47 -90 52 -2 4 -11 8
-21 8 -9 0 -26 7 -37 15 -20 15 -174 22 -187 8z"/>
<path d="M4170 290 c-19 -4 -48 -12 -63 -19 -16 -6 -40 -11 -54 -11 -71 0
-132 -41 -85 -56 9 -4 45 -20 79 -36 l63 -30 222 1 c123 1 236 5 253 9 l29 8
-34 18 c-19 9 -89 35 -155 57 -66 21 -129 43 -140 48 -31 14 -77 19 -115 11z"/>
<path d="M1045 281 c-6 -4 -66 -26 -135 -49 -69 -22 -145 -49 -170 -60 -43
-19 -44 -20 -20 -26 14 -4 131 -8 260 -9 l235 -2 78 39 c43 21 76 43 74 49 -2
6 -30 17 -63 25 -32 7 -80 20 -105 28 -52 15 -140 19 -154 5z"/>
<path d="M1430 201 c-30 -16 -64 -32 -75 -36 -19 -6 -19 -7 -3 -19 13 -10 55
-12 162 -9 143 3 145 4 194 36 81 51 72 57 -85 57 -132 -1 -140 -2 -193 -29z"/>
<path d="M1818 193 c-75 -55 -75 -55 90 -55 l104 1 33 38 c18 21 31 41 28 46
-2 4 -50 7 -106 6 -101 0 -103 -1 -149 -36z"/>
<path d="M2125 190 c-21 -22 -36 -43 -32 -46 4 -4 48 -8 99 -9 86 -1 94 0 115
23 13 14 23 36 23 48 0 23 -3 24 -83 24 l-83 0 -39 -40z"/>
<path d="M2404 206 c-8 -14 -14 -35 -12 -48 3 -22 6 -23 101 -21 110 1 137 14
137 65 l0 28 -105 0 c-100 0 -105 -1 -121 -24z"/>
<path d="M2690 208 c1 -13 9 -33 20 -46 18 -21 25 -23 122 -20 l103 3 -3 25
c-8 52 -26 60 -139 60 -100 0 -103 -1 -103 -22z"/>
<path d="M2990 214 c0 -9 8 -29 17 -45 l17 -29 103 0 c57 0 103 3 103 6 0 3
-14 24 -31 45 l-31 39 -89 0 c-75 0 -89 -3 -89 -16z"/>
<path d="M3246 223 c-3 -4 10 -24 31 -45 l37 -38 117 0 c65 0 120 4 123 9 3 4
-18 25 -48 45 -52 36 -54 36 -153 36 -55 0 -103 -3 -107 -7z"/>
<path d="M3560 221 c0 -4 25 -25 55 -45 l55 -36 155 0 c85 0 155 4 155 9 0 5
-33 25 -73 45 l-73 36 -137 0 c-75 0 -137 -4 -137 -9z"/>
</g>
</svg>
